<?xml version="1.0" encoding="UTF-8" standalone="no"?>
<svg width="2480" height="3508" viewBox="0 0 2480 3508" xmlns="http://www.w3.org/2000/svg">
  <!-- Background with gradient -->
  <defs>
    <linearGradient id="bgGradient" x1="0%" y1="0%" x2="0%" y2="100%">
      <stop offset="0%" style="stop-color:#1a1f2e;stop-opacity:1" />
      <stop offset="100%" style="stop-color:#2d364d;stop-opacity:1" />
    </linearGradient>
    
    <!-- Pattern for subtle texture -->
    <pattern id="gridPattern" width="50" height="50" patternUnits="userSpaceOnUse">
      <path d="M 50 0 L 0 0 0 50" fill="none" stroke="#ffffff" stroke-width="0.5" stroke-opacity="0.05"/>
    </pattern>
  </defs>

  <!-- Main background -->
  <rect width="100%" height="100%" fill="url(#bgGradient)"/>
  
  <!-- Texture overlay -->
  <rect width="100%" height="100%" fill="url(#gridPattern)"/>

  <!-- Decorative elements -->
  <g transform="translate(1240, 1754)" text-anchor="middle">
    <!-- Title -->
    <text x="0" y="-400" fill="#ffffff" font-family="Arial, sans-serif" font-size="120" font-weight="bold">
      KINGsNOTES
    </text>
    
    <!-- Subtitle -->
    <text x="0" y="-200" fill="#b4c6ef" font-family="Arial, sans-serif" font-size="60">
      A Collection of Technical Notes
    </text>
    
    <!-- Author -->
    <text x="0" y="0" fill="#89ddff" font-family="Arial, sans-serif" font-size="80">
      K19G
    </text>

    <!-- Decorative line -->
    <line x1="-200" y1="100" x2="200" y2="100" stroke="#ffffff" stroke-width="2" stroke-opacity="0.3"/>
  </g>

  <!-- Corner decorations -->
  <g stroke="#ffffff" stroke-width="2" stroke-opacity="0.2">
    <path d="M 100,100 L 300,100 L 300,300" fill="none"/>
    <path d="M 2380,100 L 2180,100 L 2180,300" fill="none"/>
    <path d="M 100,3408 L 100,3208 L 300,3208" fill="none"/>
    <path d="M 2380,3408 L 2380,3208 L 2180,3208" fill="none"/>
  </g>

  <!-- Abstract geometric shapes -->
  <g fill="#ffffff" fill-opacity="0.05">
    <circle cx="200" cy="200" r="100"/>
    <circle cx="2280" cy="200" r="100"/>
    <circle cx="200" cy="3308" r="100"/>
    <circle cx="2280" cy="3308" r="100"/>
  </g>
</svg>
